<svg viewBox="0 0 1494 448" xmlns="http://www.w3.org/2000/svg">
<g fill="none" fill-rule="evenodd">
<path d="M374.744,261.345 C375.47,260.377 375.47,258.925 375.712,257.715 C376.16575,252.224625 376.313219,246.751266 376.416021,241.288541 L376.48081,237.64823 C376.61929,229.764 376.785875,221.899 377.769,214.034 C379.221,202.418 381.883,191.286 388.296,181.727 C388.901,180.759 387.691,179.428 386.481,179.549 C383.819,180.759 382.125,183.542 381.036,185.72 C375.228,197.215 372.808,210.283 372.687,223.835 L372.324,262.555 C373.413,262.797 374.26,262.313 374.744,261.345 Z M441.657,249.366 C441.052,239.565 441.415,229.401 441.536,219.358 C441.657,210.162 441.657,200.845 440.81,192.012 C440.81,190.802 440.326,189.955 439.6,189.108 C438.511,188.624 437.18,188.261 436.454,189.471 C435.460966,191.244276 433.761067,193.890737 432.036793,196.581646 L431.428325,197.531875 C430.416229,199.114168 429.423483,200.678103 428.589,202.055 C427.103233,204.553791 425.608042,207.193933 424.142874,209.836049 L423.412975,211.156625 C419.898988,217.533969 416.598744,223.787163 414.069,227.949 C411.649,231.821 409.229,235.572 407.414,238.234 C407.293,238.355 406.567,238.234 406.567,237.871 C402.937,229.28 401.122,220.084 398.823,211.009 C397.129,204.112 395.314,197.215 392.894,190.681 C392.289,189.229 391.442,187.656 389.869,186.688 C389.264,186.204 387.933,186.204 387.449,187.293 C387.449,188.503 387.691,189.35 388.175,190.197 C388.538,191.044 388.901,191.891 389.143,192.738 C389.748,194.19 390.474,196.489 391.321,199.393 C392.168,202.297 393.015,205.685 393.983,209.436 C394.601444,211.748444 395.225864,214.156494 395.852276,216.580477 L396.416476,218.764214 L396.416476,218.764214 L396.792889,220.218444 C398.675111,227.478444 400.557333,234.523333 402.332,239.202 C402.937,240.775 403.421,242.59 405.357,243.074 C406.567,243.437 407.898,243.195 408.866,242.348 C411.649,238.476 414.069,234.483 416.368,230.49 C418.667,226.497 420.724,222.504 422.902,218.39 C427.379,210.041 431.856,201.692 437.059,193.706 C437.18,193.706 437.18,193.827 437.18,193.827 C437.785,202.418 437.543,210.767 437.301,219.116 C437.059,227.707 437.059,236.298 437.906,244.889 C438.148,246.946 438.148,249.003 439.721,250.576 C440.447,250.818 441.415,250.213 441.657,249.366 Z M462.832,259.409 C470.455,253.359 474.811,244.889 478.078,236.661 C478.683,239.323 479.288,241.985 480.135,244.526 C482.192,250.334 483.886,255.779 489.21,259.651 C490.299,259.893 492.235,260.135 492.114,258.562 C487.153,253.722 485.943,248.761 483.886,242.348 C482.676,238.355 481.708,234.483 481.224,230.127 C480.861,229.038 480.619,228.312 480.135,227.465 C479.893,225.408 479.893,222.867 478.683,221.173 C477.594,218.269 475.537,215.728 472.633,214.397 C471.423,213.792 470.213,213.792 469.003,214.155 C467.914,214.518 466.825,215.123 465.736,215.728 C457.871,222.383 452.789,230.853 450.369,240.049 C449.401,243.558 448.675,248.277 449.159,252.391 C449.643,255.658 450.974,258.562 453.999,260.377 C456.661,262.071 460.412,261.345 462.832,259.409 Z M454.967,255.658 C453.999,254.327 453.515,252.754 453.394,250.939 C453.273,249.124 453.515,247.188 453.636,245.373 C454.725,239.928 456.54,234.725 459.202,229.885 C461.38,226.134 464.768,221.536 468.519,218.995 C469.487,218.39 470.455,218.027 471.665,218.39 C473.238,219.237 474.448,220.81 475.416,222.504 C476.142,223.835 476.989,226.013 477.352,227.223 C476.505,228.433 476.384,229.885 476.142,231.216 C472.996,240.654 468.035,249.85 459.444,256.505 C457.992,256.989 456.056,256.747 454.967,255.658 Z M507.481,260.135 C506.513,256.626 505.303,253.359 504.335,249.971 C503.367,246.704 502.52,243.316 502.157,239.686 C503.73,235.33 506.513,231.579 509.78,228.433 C513.047,225.287 516.072,222.625 519.581,221.173 C523.211,219.6 525.873,218.874 529.503,218.148 C530.229,218.148 531.197,217.422 530.834,216.212 C529.261,215.486 527.325,215.728 525.994,215.97 C522.848,216.575 521.396,217.18 518.371,218.269 C515.588,219.358 511.232,221.899 509.054,223.835 C506.513,226.134 503.488,229.038 501.31,232.547 C501.189,227.707 501.673,223.23 503.246,219.721 C503.246,219.237 503.488,218.995 503.73,218.511 C504.456,217.301 505.666,216.333 505.666,214.639 C504.94,213.671 503.972,213.55 503.125,213.55 C501.552,214.155 500.705,215.123 500.1,216.333 C499.495,217.422 499.011,218.753 498.406,219.842 C496.954,225.045 496.591,230.248 497.196,235.33 C497.95225,242.676429 500.348328,249.733476 502.833976,256.759518 L503.431458,258.445305 C503.53106,258.726214 503.630607,259.007107 503.73,259.288 L505.182,260.861 C505.908,261.587 507.118,261.224 507.481,260.135 Z M537.731,260.982 C538.941,260.377 539.546,259.651 540.03,258.562 C540.756,257.352 540.998,255.779 541.119,254.085 C540.272,254.085 539.909,254.448 539.425,254.811 L538.578,255.295 C538.094,253.964 537.852,252.391 537.61,250.818 C537.489,249.366 537.368,247.914 537.126,246.583 C540.393,249.003 544.023,251.06 547.774,252.27 C553.219,253.964 558.301,253.843 563.746,253.359 C565.924,253.117 570.522,251.544 572.095,249.971 C572.458,249.245 572.337,248.035 571.369,247.672 C567.134,249.124 564.23,249.85 558.785,249.85 C553.34,249.85 549.71,248.761 544.87,246.583 C542.329,245.373 540.03,244.042 538.941,241.622 C538.82,238.234 540.03,235.33 541.724,232.426 C543.66,229.28 546.08,226.497 548.742,223.835 C552.493,219.963 556.607,216.817 561.568,216.212 C562.173,216.575 562.536,216.938 562.899,217.422 C563.504,218.511 563.625,219.721 563.867,220.931 C564.23,221.415 565.44,221.415 565.682,220.81 C566.287,218.874 565.803,216.696 565.319,214.881 C564.593,213.55 563.141,212.824 561.81,212.582 C556.244,213.066 551.041,216.091 546.685,220.084 C542.087,224.319 538.457,229.643 536.279,234.725 C536.037,226.739 536.763,218.874 538.094,211.251 C539.667,202.176 542.208,193.343 545.112,184.631 L545.112,181.727 C544.265,180.154 541.603,179.065 540.756,181.122 C540.514,181.727 540.635,182.453 540.635,183.179 C540.635,183.784 540.635,184.389 540.393,184.994 C537.489,193.585 535.19,202.902 533.738,212.703 C532.286,222.141 531.681,231.942 532.407,241.501 C532.77,247.309 533.738,253.117 535.069,258.804 C535.311,259.046 535.432,259.288 535.553,259.53 C535.674,259.772 535.795,260.014 536.037,260.256 C536.4,260.619 536.884,260.982 537.731,260.982 Z M591.697,255.295 C597.384,247.067 601.135,237.992 604.281,228.675 C604.765,233.273 604.644,237.871 605.37,242.227 C605.975,245.494 606.822,248.519 609,251.181 C609.484,251.786 610.815,252.512 612.146,251.786 C612.025,251.181 611.783,250.697 611.662,250.334 C611.178,249.124 610.452,248.035 610.21,246.704 C607.911,235.935 608.032,224.682 608.395,213.55 C608.758,203.023 610.815,193.101 612.146,182.816 C612.267,181.606 610.089,179.549 608.758,181.606 C607.669,185.115 607.064,188.745 606.58,192.375 C606.096,196.005 605.733,199.756 605.128,203.507 C604.644,207.258 604.644,211.13 604.402,214.881 C604.281,217.543 603.797,220.205 602.95,222.504 C602.587,221.052 602.103,219.721 601.135,218.511 C599.32,216.333 596.416,214.76 593.512,214.639 C588.43,214.276 584.316,218.269 581.775,222.383 C578.387,227.707 575.604,234.12 574.636,240.775 C573.789,245.978 574.031,251.302 575.846,256.626 C577.298,259.046 579.718,260.74 582.38,260.982 C586.252,261.345 589.519,258.441 591.697,255.295 Z M581.775,256.626 C580.323,255.9 579.476,254.69 578.992,253.117 C578.508,251.786 578.266,250.092 578.266,248.398 C578.266,246.704 578.387,245.01 578.387,243.437 C579.597,237.266 581.17,231.337 584.316,226.013 C585.768,223.714 587.583,221.536 589.882,219.479 C591.213,218.632 593.028,218.269 594.601,218.874 C596.174,219.358 597.626,220.326 598.352,221.778 C599.32,223.835 598.957,226.497 598.957,228.675 C598.957,229.159 599.32,230.127 599.925,230.369 C596.9,238.718 593.391,246.946 587.704,253.964 C586.01,256.021 584.074,257.352 581.775,256.626 Z M643.727,255.416 C647.599,251.181 650.261,245.736 651.35,240.049 C652.439,234.12 651.834,228.07 649.293,222.625 C648.325,220.447 646.631,218.148 644.453,216.575 C643.243,215.728 641.791,215.002 640.218,214.76 C639.855,213.913 638.645,213.55 637.919,213.671 C634.289,214.518 631.143,216.938 628.36,219.6 C623.641,224.077 620.253,229.643 618.438,235.572 C616.744,241.38 616.623,247.551 618.801,253.722 C620.132,257.352 623.883,260.498 627.634,261.224 C634.047,262.313 639.492,259.893 643.727,255.416 Z M628.481,256.989 C625.698,256.384 622.915,254.206 622.189,251.302 C620.979,245.857 621.221,240.412 622.794,235.572 C624.851,229.522 628.239,223.835 633.926,220.205 L635.62,219.116 C636.225,218.753 636.83,218.39 637.435,217.906 C638.403,217.301 639.613,217.301 640.823,218.511 C644.09,220.931 646.631,224.077 647.236,227.828 C647.962,232.063 647.962,236.54 646.994,240.654 C645.905,245.857 643.364,250.576 639.129,254.206 C636.346,256.626 632.474,257.957 628.481,256.989 Z M710.277,257.836 C713.181,254.569 714.875,249.487 715.48,245.252 C716.69,235.814 713.181,224.924 707.615,217.301 C706.405,215.97 704.953,213.792 702.896,213.792 C702.17,213.792 700.839,214.276 701.202,215.244 C704.832,220.084 707.978,225.408 709.914,231.095 C710.761,233.757 711.366,236.419 711.608,239.202 C711.85,243.679 711.003,248.277 709.067,252.391 C708.099,254.327 706.647,256.021 704.59,256.747 C702.291,257.594 700.113,256.626 698.419,254.69 C695.273,249.608 693.216,244.042 691.159,238.476 C689.949,236.419 689.465,234.12 687.287,232.91 C685.109,231.942 682.689,232.063 681.116,233.636 C679.301,236.177 677.97,238.718 676.76,241.259 C674.945,245.131 671.799,251.181 669.016,254.69 C668.048,255.9 666.838,256.626 665.144,256.263 C664.297,256.021 663.571,255.174 663.329,254.448 C658.852,241.622 661.272,226.981 666.475,214.881 C666.596,213.792 665.507,213.429 664.781,213.429 C663.813,213.429 662.603,214.034 662.24,214.76 C659.578,220.326 657.884,226.376 657.158,232.789 C656.311,239.807 656.553,246.825 658.489,253.722 C659.336,256.505 660.788,259.167 663.813,260.377 C666.112,261.345 668.895,260.74 670.589,258.925 C673.372,255.9 675.429,252.512 677.244,249.124 C679.059,245.615 680.632,241.985 682.326,238.476 C682.689,237.992 683.052,237.508 683.536,237.024 C683.899,236.661 684.262,236.298 684.746,236.419 C685.956,236.903 686.44,237.992 687.045,239.323 C688.134,241.985 689.102,244.647 690.191,247.43 C691.28,250.092 692.49,252.875 693.942,255.416 C695.757,258.562 698.419,260.74 702.533,261.224 C705.679,261.587 708.22,260.014 710.277,257.836 Z M753.837,260.861 C758.798,256.626 762.307,251.544 764.848,245.978 C764.969,245.494 764.122,244.405 763.517,245.01 L759.04,250.818 C757.588,252.391 756.136,253.964 754.442,255.174 C754.805,250.334 755.047,245.373 754.926,240.533 C754.805,235.451 755.168,230.006 754.442,224.924 C753.958,221.778 753.111,218.874 751.538,216.212 C750.207,215.123 748.876,214.397 747.182,214.276 C745.367,214.034 744.036,215.002 742.826,215.728 C738.833,219.479 735.929,223.835 733.388,228.312 C730.847,232.91 728.79,237.992 726.975,242.953 C726.128,234.483 725.644,225.892 724.555,217.422 L723.95,216.212 C723.345,214.881 722.498,213.671 720.925,213.429 C719.836,213.671 719.594,215.002 719.715,215.607 C721.046,218.753 721.288,222.262 721.53,225.65 C721.743529,229.28 722.20827,234.417266 722.60405,239.657973 L722.720396,241.231884 C722.947668,244.380298 723.138588,247.515412 723.224,250.334 C723.224,252.633 723.345,256.868 723.345,259.046 C723.829,260.74 726.249,260.498 726.733,259.167 C727.58,253.359 728.79,247.551 730.726,242.106 C733.025,235.33 736.05,228.917 740.527,223.23 C741.737,221.778 743.068,219.721 744.641,218.753 C745.972,218.027 747.303,217.906 748.392,218.995 C748.876,219.358 749.118,219.963 749.36,220.568 C749.602,221.173 749.723,221.778 749.844,222.504 C750.933,233.031 751.175,244.405 750.449,254.932 C750.57,255.295 750.57,255.658 750.57,256.021 C750.449,257.11 750.207,258.441 750.449,259.53 C750.812,260.619 752.506,261.95 753.837,260.861 Z M806.472,191.044 C809.497,188.503 812.885,186.809 816.515,185.841 C821.113,184.51 827.042,183.421 832.487,184.389 C835.028,184.873 837.448,185.72 839.384,187.172 C839.989,187.656 840.473,188.382 840.957,188.987 L841.441,189.592 C841.925,190.076 843.135,189.834 843.135,188.987 C842.893,187.172 842.53,186.083 841.562,184.752 C840.957,183.905 840.11,183.3 839.384,182.816 L836.964,181.606 C832.85,180.638 828.736,180.154 824.743,180.396 C817.967,180.759 811.312,182.816 805.988,186.325 C804.778,186.688 803.689,188.019 804.294,189.713 L804.657,190.076 C805.141,190.56 805.746,191.044 806.472,191.044 Z M836.359,259.409 C840.594,257.836 845.434,254.932 847.491,250.455 C847.733,250.092 847.733,249.608 847.612,249.245 C847.491,248.882 847.128,248.277 846.523,248.64 C844.829,250.455 842.772,252.27 840.715,253.359 C835.391,256.263 827.889,258.078 821.476,256.747 C817.241,255.9 813.611,253.722 811.312,250.213 C809.376,247.067 808.771,243.195 808.892,239.081 C816.760903,232.359645 825.296125,226.915401 833.858214,221.619824 L836.304704,220.109873 C839.566193,218.099399 842.822742,216.094903 846.039,214.034 L847.733,212.945 C848.338,212.582 848.822,211.977 849.185,211.009 C848.459,210.162 847.491,210.162 846.644,210.283 C833.334,216.696 820.75,224.561 808.892,233.757 C808.65,225.287 809.497,216.938 810.828,208.71 L810.898301,208.238584 C811.1063,206.82724 811.3241,205.4551 812.522,204.475 L813.248,203.991 C814.216,203.507 815.426,203.023 815.547,201.692 C814.821,200.603 813.611,199.877 812.159,200.119 C810.102,200.845 808.65,202.539 807.682,204.475 C806.109,210.283 805.746,216.454 805.141,222.383 C805.141,228.675 804.173,235.814 804.778,242.348 C805.262,247.551 806.835,252.27 810.828,256.021 C814.216,259.167 818.693,260.619 823.533,261.103 C827.889,261.466 832.608,260.74 836.359,259.409 Z M869.15,255.295 C874.837,247.067 878.588,237.992 881.734,228.675 C882.218,233.273 882.097,237.871 882.823,242.227 C883.428,245.494 884.275,248.519 886.453,251.181 C886.937,251.786 888.268,252.512 889.599,251.786 C889.478,251.181 889.236,250.697 889.115,250.334 C888.631,249.124 887.905,248.035 887.663,246.704 C885.364,235.935 885.485,224.682 885.848,213.55 C886.211,203.023 888.268,193.101 889.599,182.816 C889.72,181.606 887.542,179.549 886.211,181.606 C885.122,185.115 884.517,188.745 884.033,192.375 C883.549,196.005 883.186,199.756 882.581,203.507 C882.097,207.258 882.097,211.13 881.855,214.881 C881.734,217.543 881.25,220.205 880.403,222.504 C880.04,221.052 879.556,219.721 878.588,218.511 C876.773,216.333 873.869,214.76 870.965,214.639 C865.883,214.276 861.769,218.269 859.228,222.383 C855.84,227.707 853.057,234.12 852.089,240.775 C851.242,245.978 851.484,251.302 853.299,256.626 C854.751,259.046 857.171,260.74 859.833,260.982 C863.705,261.345 866.972,258.441 869.15,255.295 Z M859.228,256.626 C857.776,255.9 856.929,254.69 856.445,253.117 C855.961,251.786 855.719,250.092 855.719,248.398 C855.719,246.704 855.84,245.01 855.84,243.437 C857.05,237.266 858.623,231.337 861.769,226.013 C863.221,223.714 865.036,221.536 867.335,219.479 C868.666,218.632 870.481,218.269 872.054,218.874 C873.627,219.358 875.079,220.326 875.805,221.778 C876.773,223.835 876.41,226.497 876.41,228.675 C876.41,229.159 876.773,230.127 877.378,230.369 C874.353,238.718 870.844,246.946 865.157,253.964 C863.463,256.021 861.527,257.352 859.228,256.626 Z M925.415,192.012 C925.657,190.56 924.81,189.471 924.084,188.866 C918.76,184.026 912.347,181.485 905.087,181.364 C903.877,182.332 903.998,184.752 905.208,184.873 C910.532,185.962 915.493,187.293 920.333,189.471 L922.632,190.802 C923.358,191.165 924.205,191.649 925.415,192.012 Z M917.308,260.982 C919.244,260.498 921.059,259.288 922.39,257.836 C924.326,255.658 925.899,252.996 926.383,250.576 L926.867,248.398 C926.988,247.672 926.988,246.825 926.02,245.978 C925.052,246.825 924.568,247.793 924.205,248.64 C923.842,249.487 923.6,250.455 923.116,251.302 C922.148,252.633 921.18,254.206 919.849,255.295 C918.639,256.263 917.429,257.11 915.977,256.989 C915.251,256.989 913.799,255.658 913.678,254.932 C911.258,246.704 912.589,230.369 914.162,218.148 C914.283,217.18 914.404,215.97 913.557,215.002 C912.71,214.518 910.895,214.034 910.29,215.002 C907.265,219.6 904.966,224.319 902.304,229.038 C899.642,233.757 896.738,238.355 892.987,242.59 C892.624,243.074 892.745,243.558 893.108,243.8 C893.471,244.042 893.955,244.163 894.318,244.163 C895.165,244.042 896.133,243.437 896.738,242.953 C899.642,239.807 901.941,236.54 903.998,233.152 C905.813,230.127 907.507,227.223 909.201,224.077 C908.354,233.999 907.87,243.921 909.201,253.843 C909.564,256.263 910.29,258.32 912.226,260.014 C913.315,260.982 915.856,261.103 917.308,260.982 Z M980.107,245.01 C980.712,244.042 981.438,242.832 982.043,241.622 C982.527,240.412 983.011,239.202 983.011,237.871 C983.011,237.508 982.648,237.145 982.406,237.024 C982.164,236.903 981.559,236.661 981.317,237.266 C980.712,238.597 979.986,239.807 979.26,241.138 C978.413,242.469 977.687,243.679 976.84,245.01 C972.605,251.907 965.466,257.473 955.907,256.868 C953.124,256.747 949.978,253.964 949.494,250.939 C947.8,241.259 947.921,229.764 948.768,219.963 C951.309,219.116 954.455,218.632 957.48,218.269 C960.626,217.906 963.772,217.664 966.192,217.543 C966.918,217.18 967.644,215.728 966.676,215.002 C963.651,214.034 960.747,214.034 957.843,214.276 C954.939,214.639 951.914,215.244 949.131,215.486 C949.494,213.066 950.099,209.194 950.341,205.564 L950.704,201.087 C950.946,200.119 951.067,199.393 951.309,199.03 C951.672,199.151 952.035,199.393 952.398,199.756 C953.971,200.966 954.818,202.176 957.117,202.418 C956.633,201.087 956.149,200.24 955.665,199.514 C955.181,198.667 954.576,197.941 953.971,197.215 L953.366,196.489 C952.64,195.642 952.035,194.674 951.067,194.19 C950.099,193.464 948.647,193.343 947.8,194.795 C947.316,195.642 947.074,196.852 946.953,197.82 L944.896,216.575 C943.738609,216.943261 942.05513,217.471635 940.303032,218.010949 L939.247198,218.334656 C937.309826,218.926151 935.40013,219.494783 934.127,219.842 C933.522,220.205 932.433,220.205 931.586,220.084 C930.376,219.963 929.771,221.052 929.892,221.899 C930.618,223.472 932.191,224.198 933.764,224.198 C937.515,223.109 941.024,221.778 944.654,220.931 C943.928,232.184 943.686,243.437 946.106,253.964 C948.042,257.957 951.914,260.982 956.149,260.982 C967.402,261.103 975.388,253.48 980.107,245.01 Z M1012.535,255.416 C1016.407,251.181 1019.069,245.736 1020.158,240.049 C1021.247,234.12 1020.642,228.07 1018.101,222.625 C1017.133,220.447 1015.439,218.148 1013.261,216.575 C1012.051,215.728 1010.599,215.002 1009.026,214.76 C1008.663,213.913 1007.453,213.55 1006.727,213.671 C1003.097,214.518 999.951,216.938 997.168,219.6 C992.449,224.077 989.061,229.643 987.246,235.572 C985.552,241.38 985.431,247.551 987.609,253.722 C988.94,257.352 992.691,260.498 996.442,261.224 C1002.855,262.313 1008.3,259.893 1012.535,255.416 Z M997.289,256.989 C994.506,256.384 991.723,254.206 990.997,251.302 C989.787,245.857 990.029,240.412 991.602,235.572 C993.659,229.522 997.047,223.835 1002.734,220.205 L1004.428,219.116 C1005.033,218.753 1005.638,218.39 1006.243,217.906 C1007.211,217.301 1008.421,217.301 1009.631,218.511 C1012.898,220.931 1015.439,224.077 1016.044,227.828 C1016.77,232.063 1016.77,236.54 1015.802,240.654 C1014.713,245.857 1012.172,250.576 1007.937,254.206 C1005.154,256.626 1001.282,257.957 997.289,256.989 Z M1038.429,260.135 C1037.461,256.626 1036.251,253.359 1035.283,249.971 C1034.315,246.704 1033.468,243.316 1033.105,239.686 C1034.678,235.33 1037.461,231.579 1040.728,228.433 C1043.995,225.287 1047.02,222.625 1050.529,221.173 C1054.159,219.6 1056.821,218.874 1060.451,218.148 C1061.177,218.148 1062.145,217.422 1061.782,216.212 C1060.209,215.486 1058.273,215.728 1056.942,215.97 C1053.796,216.575 1052.344,217.18 1049.319,218.269 C1046.536,219.358 1042.18,221.899 1040.002,223.835 C1037.461,226.134 1034.436,229.038 1032.258,232.547 C1032.137,227.707 1032.621,223.23 1034.194,219.721 C1034.194,219.237 1034.436,218.995 1034.678,218.511 C1035.404,217.301 1036.614,216.333 1036.614,214.639 C1035.888,213.671 1034.92,213.55 1034.073,213.55 C1032.5,214.155 1031.653,215.123 1031.048,216.333 C1030.443,217.422 1029.959,218.753 1029.354,219.842 C1027.902,225.045 1027.539,230.248 1028.144,235.33 C1028.90025,242.676429 1031.29633,249.733476 1033.78198,256.759518 L1034.37946,258.445305 C1034.47906,258.726214 1034.57861,259.007107 1034.678,259.288 L1036.13,260.861 C1036.856,261.587 1038.066,261.224 1038.429,260.135 Z" stroke="currentColor" fill="currentColor" fill-rule="nonzero"/>
<path d="M1090.25161,256.424266 L1090.395,256.42 C1090.787,256.392 1091.123,256.238 1091.403,255.958 C1091.683,255.678 1091.816,255.356 1091.802,254.992 C1091.788,254.628 1091.641,254.306 1091.361,254.026 L1091.361,254.026 L1087.245,249.973 C1087.399,249.959 1087.546,249.938 1087.686,249.91 L1087.686,249.91 L1088.106,249.826 C1089.044,249.616 1089.7895,249.189 1090.3425,248.545 C1090.8955,247.901 1091.172,246.97 1091.172,245.752 C1091.172,244.954 1091.0635,244.2855 1090.8465,243.7465 C1090.6295,243.2075 1090.3075,242.777 1089.8805,242.455 C1089.4535,242.133 1088.9215,241.9055 1088.2845,241.7725 C1087.6475,241.6395 1086.916,241.573 1086.09,241.573 L1086.09,241.573 L1082.919,241.573 C1082.555,241.573 1082.2575,241.5905 1082.0265,241.6255 C1081.7955,241.6605 1081.617,241.727 1081.491,241.825 C1081.365,241.923 1081.2775,242.063 1081.2285,242.245 C1081.1795,242.427 1081.155,242.665 1081.155,242.959 L1081.155,242.959 L1081.155,255.328 C1081.155,255.58 1081.253,255.825 1081.449,256.063 C1081.645,256.301 1081.988,256.42 1082.478,256.42 C1082.968,256.42 1083.325,256.308 1083.549,256.084 C1083.773,255.86 1083.885,255.608 1083.885,255.328 L1083.885,255.328 L1083.885,250.246 L1089.45,256.105 C1089.688,256.343 1090.003,256.448 1090.395,256.42 L1090.25161,256.424266 Z M1086.09,247.684 L1083.885,247.684 L1083.885,243.967 L1086.09,243.967 C1086.398,243.967 1086.6955,243.9915 1086.9825,244.0405 C1087.2695,244.0895 1087.5215,244.1805 1087.7385,244.3135 C1087.9555,244.4465 1088.127,244.632 1088.253,244.87 C1088.379,245.108 1088.442,245.409 1088.442,245.773 C1088.442,246.557 1088.2425,247.0715 1087.8435,247.3165 C1087.4445,247.5615 1086.86,247.684 1086.09,247.684 L1086.09,247.684 Z M1097.661,256.63 C1098.501,256.63 1099.2255,256.5005 1099.8345,256.2415 C1100.4435,255.9825 1100.9195,255.6745 1101.2625,255.3175 C1101.6055,254.9605 1101.805,254.5965 1101.861,254.2255 C1101.917,253.8545 1101.812,253.564 1101.546,253.354 C1101.476,253.312 1101.3885,253.256 1101.2835,253.186 C1101.1785,253.116 1101.0595,253.0635 1100.9265,253.0285 C1100.7935,252.9935 1100.65,252.997 1100.496,253.039 C1100.342,253.081 1100.188,253.193 1100.034,253.375 C1099.824,253.613 1099.5405,253.8265 1099.1835,254.0155 C1098.8265,254.2045 1098.333,254.299 1097.703,254.299 C1097.213,254.299 1096.8105,254.222 1096.4955,254.068 C1096.1805,253.914 1095.9285,253.711 1095.7395,253.459 C1095.5505,253.207 1095.421,252.927 1095.351,252.619 C1095.281,252.311 1095.246,251.996 1095.246,251.674 L1095.246,251.674 L1101.021,251.674 C1101.441,251.674 1101.728,251.52 1101.882,251.212 C1102.036,250.904 1102.113,250.456 1102.113,249.868 C1102.113,249.168 1102.029,248.503 1101.861,247.873 C1101.693,247.243 1101.4305,246.69 1101.0735,246.214 C1100.7165,245.738 1100.258,245.36 1099.698,245.08 C1099.138,244.8 1098.459,244.66 1097.661,244.66 C1096.821,244.66 1096.086,244.814 1095.456,245.122 C1094.826,245.43 1094.2975,245.8535 1093.8705,246.3925 C1093.4435,246.9315 1093.125,247.572 1092.915,248.314 C1092.705,249.056 1092.6,249.861 1092.6,250.729 C1092.6,251.625 1092.705,252.437 1092.915,253.165 C1093.125,253.893 1093.44,254.5125 1093.86,255.0235 C1094.28,255.5345 1094.805,255.93 1095.435,256.21 C1096.065,256.49 1096.807,256.63 1097.661,256.63 Z M1099.53,249.679 L1095.246,249.679 C1095.246,249.413 1095.274,249.1225 1095.33,248.8075 C1095.386,248.4925 1095.498,248.1985 1095.666,247.9255 C1095.834,247.6525 1096.072,247.4285 1096.38,247.2535 C1096.688,247.0785 1097.094,246.991 1097.598,246.991 C1097.99,246.991 1098.3085,247.0645 1098.5535,247.2115 C1098.7985,247.3585 1098.9945,247.5545 1099.1415,247.7995 C1099.2885,248.0445 1099.39,248.3315 1099.446,248.6605 C1099.502,248.9895 1099.53,249.329 1099.53,249.679 L1099.53,249.679 Z M1107.741,256.525 C1108.427,256.525 1109.008,256.392 1109.484,256.126 C1109.96,255.86 1110.359,255.37 1110.681,254.656 L1110.681,254.656 L1110.681,255.307 C1110.681,255.419 1110.6985,255.538 1110.7335,255.664 C1110.7685,255.79 1110.8385,255.909 1110.9435,256.021 C1111.0485,256.133 1111.185,256.224 1111.353,256.294 C1111.521,256.364 1111.745,256.399 1112.025,256.399 C1112.571,256.385 1112.9315,256.2555 1113.1065,256.0105 C1113.2815,255.7655 1113.369,255.531 1113.369,255.307 L1113.369,255.307 L1113.369,245.962 C1113.369,245.738 1113.2605,245.5035 1113.0435,245.2585 C1112.8265,245.0135 1112.494,244.884 1112.046,244.87 C1111.598,244.87 1111.2655,244.996 1111.0485,245.248 C1110.8315,245.5 1110.723,245.738 1110.723,245.962 L1110.723,245.962 L1110.723,246.844 C1110.457,246.13 1110.065,245.5875 1109.547,245.2165 C1109.029,244.8455 1108.434,244.66 1107.762,244.66 C1107.16,244.66 1106.579,244.7615 1106.019,244.9645 C1105.459,245.1675 1104.9655,245.507 1104.5385,245.983 C1104.1115,246.459 1103.7685,247.082 1103.5095,247.852 C1103.2505,248.622 1103.121,249.574 1103.121,250.708 C1103.121,251.632 1103.233,252.4545 1103.457,253.1755 C1103.681,253.8965 1103.996,254.5055 1104.402,255.0025 C1104.808,255.4995 1105.2945,255.8775 1105.8615,256.1365 C1106.4285,256.3955 1107.055,256.525 1107.741,256.525 Z M1108.413,254.299 C1107.601,254.299 1106.9675,254.019 1106.5125,253.459 C1106.0575,252.899 1105.823,251.982 1105.809,250.708 C1105.795,249.434 1106.019,248.4925 1106.481,247.8835 C1106.943,247.2745 1107.573,246.977 1108.371,246.991 C1109.169,247.019 1109.7605,247.3655 1110.1455,248.0305 C1110.5305,248.6955 1110.73,249.595 1110.744,250.729 C1110.758,251.835 1110.576,252.7065 1110.198,253.3435 C1109.82,253.9805 1109.225,254.299 1108.413,254.299 Z M1119.942,256.63 C1120.908,256.63 1121.72,256.4795 1122.378,256.1785 C1123.036,255.8775 1123.505,255.482 1123.785,254.992 C1123.995,254.628 1124.072,254.3305 1124.016,254.0995 C1123.96,253.8685 1123.778,253.648 1123.47,253.438 C1123.26,253.298 1123.064,253.214 1122.882,253.186 C1122.7,253.158 1122.532,253.1685 1122.378,253.2175 C1122.224,253.2665 1122.077,253.3435 1121.937,253.4485 C1121.797,253.5535 1121.664,253.655 1121.538,253.753 C1121.454,253.823 1121.37,253.8895 1121.286,253.9525 C1121.202,254.0155 1121.104,254.075 1120.992,254.131 C1120.88,254.187 1120.7365,254.229 1120.5615,254.257 C1120.3865,254.285 1120.166,254.299 1119.9,254.299 C1119.55,254.299 1119.207,254.222 1118.871,254.068 C1118.535,253.914 1118.234,253.6865 1117.968,253.3855 C1117.702,253.0845 1117.4885,252.7135 1117.3275,252.2725 C1117.1665,251.8315 1117.086,251.317 1117.086,250.729 C1117.086,250.169 1117.156,249.658 1117.296,249.196 C1117.436,248.734 1117.6285,248.342 1117.8735,248.02 C1118.1185,247.698 1118.416,247.446 1118.766,247.264 C1119.116,247.082 1119.501,246.991 1119.921,246.991 C1120.369,246.991 1120.7435,247.082 1121.0445,247.264 C1121.3455,247.446 1121.636,247.705 1121.916,248.041 C1122.084,248.237 1122.252,248.3525 1122.42,248.3875 C1122.588,248.4225 1122.749,248.4225 1122.903,248.3875 C1123.057,248.3525 1123.19,248.293 1123.302,248.209 C1123.414,248.125 1123.498,248.048 1123.554,247.978 C1123.694,247.81 1123.7745,247.628 1123.7955,247.432 C1123.8165,247.236 1123.8025,247.04 1123.7535,246.844 C1123.7045,246.648 1123.6275,246.466 1123.5225,246.298 C1123.4175,246.13 1123.309,245.99 1123.197,245.878 C1122.889,245.57 1122.4375,245.29 1121.8425,245.038 C1121.2475,244.786 1120.593,244.66 1119.879,244.66 C1118.983,244.66 1118.1955,244.828 1117.5165,245.164 C1116.8375,245.5 1116.2705,245.9445 1115.8155,246.4975 C1115.3605,247.0505 1115.0175,247.691 1114.7865,248.419 C1114.5555,249.147 1114.44,249.91 1114.44,250.708 C1114.44,251.604 1114.559,252.416 1114.797,253.144 C1115.035,253.872 1115.3885,254.495 1115.8575,255.013 C1116.3265,255.531 1116.904,255.93 1117.59,256.21 C1118.276,256.49 1119.06,256.63 1119.942,256.63 Z M1129.45416,256.42294 L1129.728,256.42 C1130.148,256.406 1130.5365,256.3605 1130.8935,256.2835 C1131.2505,256.2065 1131.562,256.0875 1131.828,255.9265 C1132.094,255.7655 1132.304,255.5555 1132.458,255.2965 C1132.612,255.0375 1132.689,254.712 1132.689,254.32 C1132.689,253.928 1132.591,253.6725 1132.395,253.5535 C1132.199,253.4345 1131.975,253.431 1131.723,253.543 C1131.499,253.641 1131.261,253.76 1131.009,253.9 C1130.757,254.04 1130.505,254.11 1130.253,254.11 C1129.987,254.11 1129.7735,254.082 1129.6125,254.026 C1129.4515,253.97 1129.329,253.8685 1129.245,253.7215 C1129.161,253.5745 1129.105,253.375 1129.077,253.123 C1129.049,252.871 1129.035,252.549 1129.035,252.157 L1129.035,252.157 L1129.035,247.453 L1131.135,247.453 C1131.667,247.453 1132.017,247.3445 1132.185,247.1275 C1132.353,246.9105 1132.43,246.599 1132.416,246.193 C1132.402,245.787 1132.3215,245.4895 1132.1745,245.3005 C1132.0275,245.1115 1131.709,245.017 1131.219,245.017 L1131.219,245.017 L1129.035,245.017 L1129.035,243.694 C1129.035,243.33 1128.965,243.0535 1128.825,242.8645 C1128.685,242.6755 1128.321,242.581 1127.733,242.581 C1127.159,242.581 1126.7915,242.693 1126.6305,242.917 C1126.4695,243.141 1126.389,243.477 1126.389,243.925 L1126.389,243.925 L1126.389,245.017 L1125.486,245.017 C1125.122,245.017 1124.877,245.108 1124.751,245.29 C1124.625,245.472 1124.562,245.773 1124.562,246.193 C1124.562,246.599 1124.6285,246.9105 1124.7615,247.1275 C1124.8945,247.3445 1125.157,247.453 1125.549,247.453 L1125.549,247.453 L1126.389,247.453 L1126.389,253.459 C1126.389,254.075 1126.4765,254.5755 1126.6515,254.9605 C1126.8265,255.3455 1127.0645,255.65 1127.3655,255.874 C1127.6665,256.098 1128.02,256.2485 1128.426,256.3255 C1128.832,256.4025 1129.266,256.434 1129.728,256.42 L1129.45416,256.42294 Z" fill="#A0A0A0" fill-rule="nonzero"/>
</g>
</svg>